<?xml version="1.0" standalone="no"?><svg xmlns="http://www.w3.org/2000/svg" viewBox="0 0 1440 320"><path fill="#68213A" fill-opacity="1" d="M0,288L0,64L36.9,64L36.9,224L73.8,224L73.8,32L110.8,32L110.8,320L147.7,320L147.7,224L184.6,224L184.6,288L221.5,288L221.5,224L258.5,224L258.5,288L295.4,288L295.4,192L332.3,192L332.3,128L369.2,128L369.2,96L406.2,96L406.2,96L443.1,96L443.1,160L480,160L480,224L516.9,224L516.9,256L553.8,256L553.8,128L590.8,128L590.8,288L627.7,288L627.7,224L664.6,224L664.6,96L701.5,96L701.5,160L738.5,160L738.5,288L775.4,288L775.4,160L812.3,160L812.3,160L849.2,160L849.2,32L886.2,32L886.2,64L923.1,64L923.1,128L960,128L960,320L996.9,320L996.9,320L1033.8,320L1033.8,288L1070.8,288L1070.8,192L1107.7,192L1107.7,64L1144.6,64L1144.6,288L1181.5,288L1181.5,192L1218.5,192L1218.5,64L1255.4,64L1255.4,128L1292.3,128L1292.3,32L1329.2,32L1329.2,128L1366.2,128L1366.2,288L1403.1,288L1403.1,224L1440,224L1440,320L1403.1,320L1403.1,320L1366.2,320L1366.2,320L1329.2,320L1329.2,320L1292.3,320L1292.3,320L1255.4,320L1255.4,320L1218.5,320L1218.5,320L1181.5,320L1181.5,320L1144.6,320L1144.6,320L1107.7,320L1107.7,320L1070.8,320L1070.8,320L1033.8,320L1033.8,320L996.9,320L996.9,320L960,320L960,320L923.1,320L923.1,320L886.2,320L886.2,320L849.2,320L849.2,320L812.3,320L812.3,320L775.4,320L775.4,320L738.5,320L738.5,320L701.5,320L701.5,320L664.6,320L664.6,320L627.7,320L627.7,320L590.8,320L590.8,320L553.8,320L553.8,320L516.9,320L516.9,320L480,320L480,320L443.1,320L443.1,320L406.2,320L406.2,320L369.2,320L369.2,320L332.3,320L332.3,320L295.4,320L295.4,320L258.5,320L258.5,320L221.5,320L221.5,320L184.6,320L184.6,320L147.7,320L147.7,320L110.8,320L110.8,320L73.8,320L73.8,320L36.9,320L36.9,320L0,320L0,320Z"></path></svg>