<?xml version="1.0" standalone="no"?><svg xmlns="http://www.w3.org/2000/svg" viewBox="0 0 1440 320"><path fill="#68213A" fill-opacity="1" d="M0,320L6.2,304C12.3,288,25,256,37,245.3C49.2,235,62,245,74,256C86.2,267,98,277,111,288C123.1,299,135,309,148,293.3C160,277,172,235,185,202.7C196.9,171,209,149,222,144C233.8,139,246,149,258,165.3C270.8,181,283,203,295,213.3C307.7,224,320,224,332,240C344.6,256,357,288,369,282.7C381.5,277,394,235,406,197.3C418.5,160,431,128,443,138.7C455.4,149,468,203,480,224C492.3,245,505,235,517,208C529.2,181,542,139,554,128C566.2,117,578,139,591,138.7C603.1,139,615,117,628,138.7C640,160,652,224,665,224C676.9,224,689,160,702,117.3C713.8,75,726,53,738,58.7C750.8,64,763,96,775,122.7C787.7,149,800,171,812,176C824.6,181,837,171,849,176C861.5,181,874,203,886,218.7C898.5,235,911,245,923,240C935.4,235,948,213,960,170.7C972.3,128,985,64,997,64C1009.2,64,1022,128,1034,160C1046.2,192,1058,192,1071,176C1083.1,160,1095,128,1108,144C1120,160,1132,224,1145,234.7C1156.9,245,1169,203,1182,170.7C1193.8,139,1206,117,1218,112C1230.8,107,1243,117,1255,112C1267.7,107,1280,85,1292,96C1304.6,107,1317,149,1329,170.7C1341.5,192,1354,192,1366,186.7C1378.5,181,1391,171,1403,160C1415.4,149,1428,139,1434,133.3L1440,128L1440,320L1433.8,320C1427.7,320,1415,320,1403,320C1390.8,320,1378,320,1366,320C1353.8,320,1342,320,1329,320C1316.9,320,1305,320,1292,320C1280,320,1268,320,1255,320C1243.1,320,1231,320,1218,320C1206.2,320,1194,320,1182,320C1169.2,320,1157,320,1145,320C1132.3,320,1120,320,1108,320C1095.4,320,1083,320,1071,320C1058.5,320,1046,320,1034,320C1021.5,320,1009,320,997,320C984.6,320,972,320,960,320C947.7,320,935,320,923,320C910.8,320,898,320,886,320C873.8,320,862,320,849,320C836.9,320,825,320,812,320C800,320,788,320,775,320C763.1,320,751,320,738,320C726.2,320,714,320,702,320C689.2,320,677,320,665,320C652.3,320,640,320,628,320C615.4,320,603,320,591,320C578.5,320,566,320,554,320C541.5,320,529,320,517,320C504.6,320,492,320,480,320C467.7,320,455,320,443,320C430.8,320,418,320,406,320C393.8,320,382,320,369,320C356.9,320,345,320,332,320C320,320,308,320,295,320C283.1,320,271,320,258,320C246.2,320,234,320,222,320C209.2,320,197,320,185,320C172.3,320,160,320,148,320C135.4,320,123,320,111,320C98.5,320,86,320,74,320C61.5,320,49,320,37,320C24.6,320,12,320,6,320L0,320Z"></path></svg>